<svg aria-hidden="true" style="position:absolute;width:0;height:0;overflow:hidden" xmlns="http://www.w3.org/2000/svg">
  <defs>
    <symbol id="arrow" viewBox="0 0 32 32">
      <path d="M5.333 14.667v2.667h16L14 24.667l1.893 1.893L26.453 16 15.893 5.44 14 7.333l7.333 7.333h-16z"/>
    </symbol>
    <symbol id="arrow-down" viewBox="0 0 50 32">
      <path stroke-width="7.111" d="m3.556 3.556 21.333 21.333L46.222 3.556"/>
    </symbol>
    <symbol id="codepan" viewBox="0 0 32 32">
      <path d="m21.999 17.602-4.667 3.111v4.795L25.595 20l-3.596-2.397zM19.595 16l-3.596-2.397L12.403 16l3.596 2.397L19.595 16zm7.071-1.51-2.263 1.509 2.263 1.509v-3.019zM25.595 12l-8.263-5.508v4.795l4.667 3.111 3.596-2.397zM9.999 14.397l4.667-3.111V6.491l-8.263 5.508 3.596 2.397zM6.403 20l8.263 5.508v-4.795l-4.667-3.111-3.596 2.397zm-1.07-2.491L7.596 16l-2.263-1.509v3.019zM2.666 12a1.328 1.328 0 0 1 .594-1.109l12-8a1.335 1.335 0 0 1 1.48 0l12 8A1.34 1.34 0 0 1 29.334 12v8a1.33 1.33 0 0 1-.594 1.109l-12 8a1.335 1.335 0 0 1-1.48 0l-12-8A1.34 1.34 0 0 1 2.666 20v-8z"/>
    </symbol>
    <symbol id="codewars" viewBox="0 0 32 32">
      <path d="m1.015 16.266-.109-.052a1.371 1.371 0 0 1-.557-.589 2.03 2.03 0 0 1-.271-1l.026-.172c0-.266.068-.505.188-.734l.109-.198c.052-.109.13-.203.198-.292a.352.352 0 0 0 .068-.323l-.068-.214a2.84 2.84 0 0 1-.13-.797l-.042-.161c0-.297.078-.589.266-.802l.135-.172c.094-.135.24-.214.401-.266.13-.042.224-.177.24-.333l.026-.453c0-.359.172-.693.438-.938l.323-.24c.063-.063.13-.13.182-.24.068-.078.083-.188.068-.266-.026-.13 0-.172.068-.188.214.083.349.057.443-.052l.172-.224.479-.536a.52.52 0 0 0 .104-.557l-.156-.349c-.026-.078 0-.172.068-.198.172 0 .292.063.344.172l.052.094c.083.161.271.24.401.172.244-.088.501-.132.76-.13h.427c.292 0 .531-.203.589-.51.052-.37.182-.667.37-.865.203-.229.427-.401.693-.536.349-.182.563-.453.63-.797.094-.427.318-.734.625-.932l1.016-.573.292-.177c.172-.104.333-.24.469-.401l.266-.318a.9.9 0 0 1 .427-.266c.13-.042.318-.068.479-.052l.531.036c.266 0 .479.068.693.161l.135.068c.135.052.266.026.333-.068l.12-.068.573-.599a.518.518 0 0 1 .469-.161c.172.026.344.094.505.177.24.13.438.182.667.182h.135c.292 0 .583.042.88.109l.198.052a.509.509 0 0 0 .531-.188c.009-.016.022-.029.037-.039s.032-.017.05-.019a.124.124 0 0 1 .1.032c.042.026.052.052.068.094.026.266.188.469.401.531l.214.068c.224.068.427.214.557.401.135.198.297.401.479.531l.135.135a.63.63 0 0 0 .505.172h.786c.323 0 .63.057.938.188.292.135.599.161.875.052.297-.089.604-.13.911-.089l.573.089c.266.031.531.161.693.365l.068.063c.13.135.266.307.396.495a.497.497 0 0 0 .453.266h.828c.203 0 .401.042.563.135.172.13.318.266.453.401l.13.172c.161.188.24.438.229.708 0 .214.161.396.37.396l.271.031c.188 0 .344.13.438.302l.135.271.344.771c.05.118.07.247.057.375 0 .13.036.24.13.292l.135.094a.614.614 0 0 1 .24.563l-.094.625-.026.266a.43.43 0 0 0 .161.401c.198.13.292.307.302.505v.266c0 .135-.026.297-.13.401a.64.64 0 0 0-.135.401l.042.307c0 .214.13.401.266.531a.83.83 0 0 1 .323.563c.052.333.063.599.063.865v.307c0 .109 0 .214.042.318a.48.48 0 0 0 .172.245l.266.198c.271.172.458.401.563.708.135.292.172.599.172.906v.104c0 .24-.026.495-.104.719a.964.964 0 0 0 .036.667c.109.188.177.401.203.63.052.266.026.531-.068.745l-.026.094a1.193 1.193 0 0 1-.307.427c-.135.135-.266.214-.344.307-.083.078-.135.214-.094.333l.036.188c.068.266.068.531 0 .771v.109c-.052.198-.13.37-.214.531a.987.987 0 0 1-.396.401l-.203.13a.354.354 0 0 0-.161.297.508.508 0 0 1-.13.344l-.203.271c-.13.172-.302.318-.49.396a3.145 3.145 0 0 0-.469.401 1.469 1.469 0 0 0-.292.536.448.448 0 0 1-.443.37h-.719c-.188 0-.359.135-.438.297a1.797 1.797 0 0 1-.307.49 1.117 1.117 0 0 0-.271.479c-.026.161-.156.271-.292.214-.075-.034-.161-.04-.24-.015s-.146.078-.187.15c-.135.234-.3.449-.49.641l-.094.078c-.177.135-.401.24-.604.24-.24 0-.359.109-.396.266a2.46 2.46 0 0 0-.083.458c-.029.15-.072.297-.13.438l-.068.078c-.135.203-.24.401-.375.573l-.052.083c-.172.224-.401.401-.667.464-.284.095-.581.14-.88.135h-.188a.455.455 0 0 0-.359.214l-.078.135-.083.156-.172.297a.993.993 0 0 1-.599.479 2.921 2.921 0 0 1-.854.078l-.214-.026c-.188 0-.359-.052-.531-.135-.135-.052-.323 0-.401.135a.92.92 0 0 1-.469.349l-.401.13a1.75 1.75 0 0 1-.839 0l-.214-.068a.755.755 0 0 1-.375-.13.717.717 0 0 0-.396-.083l-.177.031c-.266.026-.505 0-.745-.068l-.359-.083a.737.737 0 0 1-.401-.307.523.523 0 0 0-.401-.266h-.427c-.266-.036-.505-.13-.667-.333L12 30.001l-.188-.161-.292-.214-.172-.13a1.561 1.561 0 0 0-.698-.266l-.797-.135c-.083 0-.135-.026-.214-.042l-.307-.068c-.135-.026-.266-.13-.359-.266-.078-.13-.229-.188-.359-.13-.266.104-.479.13-.693.172h-.188c-.339.029-.68-.03-.99-.172-.318-.135-.531-.333-.729-.589a1.088 1.088 0 0 0-.698-.453l-.37-.078a2.218 2.218 0 0 1-.776-.323c-.266-.188-.401-.359-.505-.573a1.692 1.692 0 0 1-.188-.667v-.104c-.026-.271-.214-.51-.464-.573a1.953 1.953 0 0 1-.734-.401.952.952 0 0 1-.297-.693l.031-.589c0-.229-.068-.427-.229-.573-.161-.161-.266-.359-.266-.573l-.042-.479a7.212 7.212 0 0 0-.172-1.042c-.078-.307.042-.615.292-.76l.094-.068a.331.331 0 0 0 .109-.427l-.109-.13a.931.931 0 0 0-.401-.266c-.104-.031-.13-.135-.13-.203l.13-.161a.25.25 0 0 0 0-.318.639.639 0 0 1-.172-.375l-.026-.932c0-.188.026-.375.078-.557.057-.161 0-.349-.156-.427l.001.011zm13.198-1.761c.094-.094.078-.266 0-.333a1.19 1.19 0 0 1-.307-.359l-.135-.214a1.809 1.809 0 0 0-.344-.453l-.026-.026a1.07 1.07 0 0 1-.307-.401.425.425 0 0 1 0-.4l.078-.13a.982.982 0 0 0 .135-.479v-.057a.762.762 0 0 0-.135-.396 1.603 1.603 0 0 1-.13-.375v-.078a.557.557 0 0 1 .104-.469c.109-.172.188-.333.229-.531v-.031a.506.506 0 0 0-.057-.438.502.502 0 0 1-.052-.427l.094-.266c.078-.24.203-.453.359-.641l.188-.198.135-.161.078-.078a.264.264 0 0 0 .026-.323.617.617 0 0 1-.078-.401l.026-.188c.042-.266.135-.531.307-.745l.052-.052c.198-.266.453-.443.745-.536l.365-.13c.156-.052.266-.229.266-.401 0-.214.068-.401.187-.573l.063-.068c.135-.224.297-.453.401-.693l.094-.172a.282.282 0 0 0 .042-.135c0-.224-.135-.427-.349-.438l-.583-.042c-.333-.026-.667 0-.99 0l-1.13.135c-.177 0-.307.13-.323.318a.433.433 0 0 1-.292.401l-.479.13-.135.042-.401.135a1.112 1.112 0 0 0-.667.599l-.104.172a1.615 1.615 0 0 1-.641.708c-.266.172-.401.453-.427.771v.135c-.026.266-.109.531-.266.719l-.068.109a.428.428 0 0 0-.068.453c.068.156.109.333.094.505v.708a.446.446 0 0 1-.266.396.572.572 0 0 0-.359.401l-.068.266a.688.688 0 0 0 .266.698c.214.156.349.396.401.693v.24c.042.266.188.531.427.667.24.161.427.401.531.667l.068.214a.73.73 0 0 0 .615.49h.078c.24 0 .453.135.589.349.13.214.344.359.583.401l.375.104c.229.068.443.188.615.359l.026.031c.071.052.159.075.246.065s.167-.054.223-.122l.094-.104-.018-.016zm1.52-1.224c.13.078.266.036.318-.083l.042-.063c.094-.188.214-.375.344-.536l.271-.401c.036 0 .052-.026.063-.052l.323-.427c.135-.13.292-.224.479-.224a.437.437 0 0 0 .401-.266c.052-.188.13-.365.292-.51l.068-.078c.135-.135.266-.203.401-.266.172-.026.333-.057.495-.057h.396c.161 0 .297-.063.375-.198s.198-.224.333-.292l.135-.057c.214-.089.453-.156.693-.182l.266-.026c.161 0 .333 0 .495.089.13.094.307.083.438-.026l.094-.052c.198-.135.427-.24.667-.266h.026c.256-.045.517-.059.776-.042h.13c.266.042.495.135.667.333l.042.052c.135.135.344.245.531.245h.229c.068 0 .13-.031.172-.094a.268.268 0 0 1 .172-.083h.135c.188 0 .359.052.531.109l.229.094c.214.063.438.13.667.156h.161c.104 0 .172-.063.172-.156a.696.696 0 0 0-.094-.375l-.094-.214c-.104-.172-.188-.359-.266-.531l-.026-.068a.413.413 0 0 1 0-.4v-.068A.228.228 0 0 0 27.147 8h-.104a1.089 1.089 0 0 1-.536-.359l-.13-.135c-.135-.13-.214-.333-.271-.531-.063-.172-.208-.307-.396-.307h-.563a.757.757 0 0 1-.495-.292l-.052-.068a1.74 1.74 0 0 1-.224-.453c-.068-.135-.214-.214-.349-.172l-.161.052c-.266.094-.531.13-.797.104l-.214-.026c-.229 0-.443-.094-.615-.224l-.135-.094a1.352 1.352 0 0 0-.333-.188c-.13-.052-.24-.026-.318.068l-.068.078a.903.903 0 0 1-.505.266l-.719.042a.525.525 0 0 0-.359.161.774.774 0 0 1-.365.182h-.026c-.13 0-.266.094-.396.188v.026a.686.686 0 0 1-.484.203l-.052.026c-.161 0-.318 0-.479.042h-.161c-.224.036-.401.224-.453.464l-.052.307a1.376 1.376 0 0 1-.266.573c-.135.161-.297.266-.495.266h-.224c-.135.031-.271.177-.245.333.031.229 0 .427-.036.63l-.052.224a.622.622 0 0 1-.365.427l-.078.042h-.026c-.078.052-.135.172-.068.266a.61.61 0 0 1 .094.401l-.042.427a.995.995 0 0 1-.13.438.408.408 0 0 0-.026.401l.13.292a.576.576 0 0 1 .042.427.958.958 0 0 0-.052.401c0 .135.078.266.188.323l.049.051zm10.532 9.641c.135.13.333.182.495.078l.266-.172a.75.75 0 0 0 .292-.401v-.026l.135-.401.078-.135.057-.13.052-.094a.403.403 0 0 1 .266-.229l.052-.026c.109-.026.177-.13.177-.24 0-.13.063-.24.13-.333l.109-.094.266-.344v-.026c.078-.11.132-.234.161-.365a.667.667 0 0 0-.057-.396l-.026-.057a1.33 1.33 0 0 1-.094-.344l-.036-.375-.042-.401c0-.13.052-.266.135-.396.089-.109.156-.245.214-.375v-.052l.026-.026c.026-.135-.042-.271-.161-.271-.135-.063-.266-.172-.307-.333l-.042-.078a2.865 2.865 0 0 1-.104-.719l.026-.667v-.042a.404.404 0 0 0-.401-.401h-.026a.878.878 0 0 1-.667-.266l-.104-.135-.271-.302-.344-.401a3.078 3.078 0 0 0-.443-.51c-.13-.13-.333-.266-.531-.292l-.266-.042a1.373 1.373 0 0 1-.453-.182c-.109-.083-.266-.057-.375.052l-.172.188-.083.052c-.094.026-.182-.026-.224-.135a.684.684 0 0 1 .026-.505v-.078c0-.094-.078-.161-.161-.135h-.214a1.646 1.646 0 0 1-.703-.13l-.135-.057a.994.994 0 0 0-.438-.104.76.76 0 0 0-.401.104l-.052.042a1.113 1.113 0 0 1-.536.172h-.438a.872.872 0 0 0-.536.177c-.171.103-.36.173-.557.208l-.359.057a1.192 1.192 0 0 0-.484.224c-.13.135-.318.214-.49.266l-.068.031a.952.952 0 0 0-.531.396l-.161.161a.358.358 0 0 0 0 .426c.078.135.24.172.401.135l.198-.083c.104-.036.229 0 .318.052a.442.442 0 0 0 .323.094l.333-.036c.188 0 .375 0 .557.052.203.068.375.135.536.266a.966.966 0 0 0 .531.214c.203.026.401.068.589.135l.13.026c.135.042.245.13.323.266.068.109.13.266.13.401v.042c0 .156.135.266.271.266h.078c.214 0 .443.026.667.094l.094.036a.778.778 0 0 1 .359.271c.109.13.172.266.214.396l.042.188c.036.203.052.401.052.615v.068c0 .13.094.266.24.318.135.026.292.083.443.161l.063.026c.177.104.349.24.479.401l.068.094c.177.198.266.453.266.703v.094c0 .203-.036.401-.104.589-.052.161 0 .349.172.401l.094.068c.203.078.375.224.505.396.135.203.188.427.188.667v.401c-.026.135-.063.24-.13.333s-.068.229 0 .323l.078.13.022-.015zm-8.532-6.828h-.026c-.057 0-.083.068-.068.135l.052.266c.052.214.078.427.109.641.026.214.13.396.292.531h.052a.88.88 0 0 1 .333.641v.667c-.026.13 0 .266.083.375l.063.063c.123.153.194.34.203.536l.036.734c0 .172-.104.318-.266.344l-.13.026c-.094 0-.135.109-.135.203 0 .104.042.224.078.333v.026c.042.13.057.266.042.401l-.052.359a2.533 2.533 0 0 1-.266.745l-.094.161a.582.582 0 0 1-.271.266.47.47 0 0 0-.266.292l-.104.479a2.937 2.937 0 0 1-.349.802h-.026a1.872 1.872 0 0 1-.599.531l-.161.109-.401.198a.422.422 0 0 0-.24.323l-.063.438c-.042.266-.135.495-.323.667l-.172.203-.203.198-.198.214c-.161.188-.401.266-.667.229l-.479-.094-.443-.057h-.12c-.052.057-.063.135-.026.214.094.161.24.271.401.271l.292.052c.135 0 .297.068.427.13.135.094.266.161.427.203h.026c.177.068.359.078.536.068l.198-.031c.229-.026.443 0 .625.083l.161.052c.068.026.172 0 .24-.068a.79.79 0 0 1 .266-.172l.109-.026c.172-.052.344-.083.531-.083h.109c.156 0 .307.031.438.109l.052.026c.094.042.203 0 .271-.078.036-.094.13-.188.224-.266l.333-.229.214-.135.109-.063a.847.847 0 0 1 .479-.135l.479-.042a.482.482 0 0 0 .401-.344c.052-.203.13-.401.266-.573.135-.177.266-.323.401-.453a.921.921 0 0 1 .531-.214h.109c.104-.021.197-.078.262-.161s.1-.187.097-.292v-.896c.026-.13.078-.307.156-.438l.271-.401.104-.135c.083-.068.135-.156.229-.266l.13-.172c.083-.135.083-.307-.026-.427a.916.916 0 0 1-.224-.505v-.057a1.723 1.723 0 0 1 .036-.667v-.063c.068-.177.161-.349.271-.51a.302.302 0 0 0-.042-.427l-.229-.198a.978.978 0 0 1-.318-.641l-.026-.266c0-.083 0-.172-.026-.266l-.026-.203a.77.77 0 0 0-.349-.531l-.094-.026a1.283 1.283 0 0 1-.375-.359c-.104-.135-.156-.323-.198-.51l-.042-.224c0-.083-.052-.135-.13-.172l-.641-.203c-.135-.026-.266-.13-.359-.224h-.026c-.083-.109-.214-.109-.297-.031l-.13.135c-.026.042-.057.052-.094.042-.083 0-.135-.068-.109-.135a.604.604 0 0 0-.224-.557l-.177-.135-.396-.266c-.109-.042-.271 0-.323.13l-.052.083c0 .026-.042.036-.052.052-.057 0-.135 0-.135-.068l-.042-.068c-.036-.078-.13-.13-.214-.156l-.03-.067zm-1.599 1.333-.068-.068c-.068-.052-.135-.042-.203.026a1.89 1.89 0 0 0-.214.51v.026c-.036.172-.198.292-.359.266h-.156a.34.34 0 0 0-.333.344c0 .24-.083.484-.229.667l-.078.083a1.13 1.13 0 0 1-.536.359l-.104.026a.36.36 0 0 0-.266.292c0 .135-.083.271-.188.375l-.135.104c-.161.177-.401.271-.641.297l-.667.068c-.214 0-.396.13-.531.333-.135.198-.333.333-.531.359l-.297.026c-.222.03-.448.021-.667-.026l-.13-.026-.365-.094a.28.28 0 0 0-.318.094l-.135.172a.769.769 0 0 1-.667.266l-.865-.104c-.135 0-.24-.068-.359-.135-.135-.078-.229-.172-.323-.266L6.436 21c-.036-.026-.104-.042-.172-.026l-.188.078-.745.188c-.135.042-.307 0-.438-.078-.135-.109-.297-.135-.458-.135h-.172a.309.309 0 0 0-.187.142c-.02.035-.033.074-.037.114s-.001.081.01.119l.052.266c.042.135.031.292-.036.427s-.052.266.036.401l.083.104c.104.161.266.297.401.427.13.135.266.266.37.443l.203.359c.044.089.112.164.197.215s.183.078.282.077c.198 0 .401.068.557.198l.401.375c.109.094.266.109.375.026l.068-.026c.078 0 .13.052.13.135v.068c0 .172.135.333.307.396l.599.135c.214.068.427.135.63.266h.104a.189.189 0 0 0 .181-.135.197.197 0 0 0 .007-.08v-.464c0-.135.052-.271.161-.323l.068-.026c.063.026.13.078.104.135v.224c0 .172.052.333.172.453a.42.42 0 0 0 .453.109c.161-.068.323-.083.495-.068l.495.026c.24.026.464 0 .667-.094.24-.078.438-.188.625-.333l.078-.052.401-.359a.669.669 0 0 1 .469-.203h.531a.627.627 0 0 0 .536-.531l.052-.266c0-.177.078-.333.198-.469.135-.135.266-.214.401-.266l.161-.068a.862.862 0 0 0 .479-.531l.078-.323c.068-.266.203-.531.401-.703l.026-.031c.161-.13.188-.396.083-.583l-.042-.094a.549.549 0 0 1-.042-.505c.068-.188.135-.349.24-.51l.135-.188c.052-.104.052-.266-.026-.359a.609.609 0 0 1-.135-.37l-.026-.188v-.453a.994.994 0 0 0-.042-.443l-.052-.156-.006-.041zm-1.906-1.016v-.036c0-.135-.083-.214-.188-.214h-.349a.911.911 0 0 1-.375 0h-.599c-.307 0-.599-.057-.891-.135l-.323-.078-.266-.083-.599-.198a1.127 1.127 0 0 1-.708-.599l-.068-.135c-.094-.198-.292-.307-.49-.266-.229 0-.453 0-.667-.104l-.161-.068c-.307-.135-.531-.401-.531-.76l-.057-.359c-.036-.188-.156-.359-.318-.427a3.471 3.471 0 0 1-.536-.307l-.063-.042a1.444 1.444 0 0 1-.469-.625l-.026-.078a1.25 1.25 0 0 1-.026-.667l.026-.083c.052-.172.068-.344.068-.531a.635.635 0 0 0-.188-.443l-.188-.172a.977.977 0 0 1-.359-.708 3.132 3.132 0 0 1 .026-.854v-.078a.267.267 0 0 0-.266-.266h-.042c-.172 0-.318.104-.401.266a1.484 1.484 0 0 1-.292.479l-.052.068-.401.401c-.135.13-.214.333-.24.531a2.12 2.12 0 0 1-.161.589l-.026.068a.947.947 0 0 1-.307.401.577.577 0 0 0-.224.422l-.026.615c0 .266-.042.536-.135.802l-.026.104a.344.344 0 0 0 .161.443l.557.24.052.026c.042 0 .057.026.068.068.042.052 0 .13-.042.13l-.13.068c-.078.026-.135.109-.161.203l-.026.13v.026l-.135.75c-.026.104-.026.224-.026.344 0 .051.015.102.044.144s.069.076.117.096l.292.135c.135.078.297.172.401.266l.135.109a.466.466 0 0 0 .156.13l.057.052a.615.615 0 0 1 .188.307l.13.599c0 .161.135.297.266.333l.214.068s.042 0 .068.026l.266.083c.214.068.401.188.563.344.161.135.318.307.453.495l.052.052c.109.135.266.203.427.161s.333-.052.505-.052h.203c.13 0 .307.036.453.13.13.083.307.135.464.203h.042a.495.495 0 0 0 .469-.052.755.755 0 0 1 .479-.161l.625.036c.135 0 .266-.026.333-.13h.026l.229-.214.068-.068a.591.591 0 0 1 .422-.198h.604c.156 0 .307-.135.37-.266a.507.507 0 0 1 .359-.271l.271-.052c.104 0 .198-.094.24-.214a.623.623 0 0 1 .198-.318l.214-.214a.74.74 0 0 0 .229-.427l-.026.01z"/>
    </symbol>
    <symbol id="dev" viewBox="0 0 32 32">
      <path d="M24.5 0h-17A7.5 7.5 0 0 0 0 7.5v17A7.5 7.5 0 0 0 7.5 32h17a7.5 7.5 0 0 0 7.5-7.5v-17A7.5 7.5 0 0 0 24.5 0z"/>
      <path d="m10.922 18.402-.001-4.816c-.001-1.278-.809-3.211-3.21-3.211H4.5v11.236h3.144c2.49.004 3.277-1.931 3.277-3.209zm-3.099-5.925c.263 0 .527.098.789.295s.394.493.395.887v4.73c0 .395-.131.69-.394.887s-.527.295-.79.295H6.64v-7.094h1.182zM17.745 12.382h-3.611v2.609h2.207v2.008h-2.207v2.608h3.612v2.008h-4.214a1.37 1.37 0 0 1-1.404-1.337v-8.496a1.372 1.372 0 0 1 1.336-1.405h4.282l-.001 2.005zm7.023 7.828c-.895 2.088-2.497 1.673-3.215 0l-2.611-9.833h2.207l2.014 7.722 2.004-7.722h2.208l-2.606 9.833z"/>
    </symbol>
    <symbol id="email" viewBox="0 0 32 32">
      <path d="M28 6H4a.997.997 0 0 0-1 1v17a2 2 0 0 0 2 2h22a2 2 0 0 0 2-2V7a.997.997 0 0 0-1-1zm-1 18H5V9.274l10.324 9.464a1 1 0 0 0 1.352 0L27 9.274V24z"/>
    </symbol>
    <symbol id="facebook" viewBox="0 0 32 32">
      <path d="M32 16.098c0-8.892-7.164-16.1-16-16.1C7.16 0-.004 7.206-.004 16.1c0 8.034 5.852 14.694 13.5 15.902v-11.25h-4.06V16.1H13.5v-3.55c0-4.034 2.39-6.262 6.044-6.262 1.752 0 3.582.314 3.582.314v3.96h-2.018c-1.986 0-2.606 1.242-2.606 2.516v3.02h4.436l-.708 4.652H18.5V32C26.148 30.792 32 24.132 32 16.098z"/>
    </symbol>
    <symbol id="freecodecamp" viewBox="0 0 32 32">
      <path d="M26.513 5.208a.827.827 0 0 0-.472.16c-.107.107-.215.261-.215.417 0 .267.315.632.897 1.231 2.429 2.339 3.651 5.204 3.643 8.659-.009 3.823-1.293 6.893-3.792 9.272-.525.471-.741.84-.743 1.156 0 .155.107.316.213.471.127.124.294.2.471.216.579 0 1.387-.683 2.444-2.012 2.056-2.52 2.987-5.304 3.039-9.099.048-3.796-1.143-6.369-3.471-9.027-.84-.949-1.537-1.443-2.015-1.444zm-21.025.003c-.477 0-1.176.493-2.013 1.444C1.144 9.312-.046 11.886.002 15.682c.053 3.795.983 6.577 3.04 9.099 1.055 1.329 1.864 2.013 2.443 2.012a.761.761 0 0 0 .469-.216c.107-.155.213-.316.213-.471 0-.316-.216-.685-.741-1.155-2.497-2.38-3.783-5.449-3.792-9.273-.008-3.455 1.213-6.32 3.643-8.659.583-.599.899-.963.897-1.231 0-.156-.107-.311-.215-.417a.827.827 0 0 0-.472-.16h.001zm9.408 1.193s.873 2.775-3.532 8.969c-4.208 5.911 1.393 9.533 1.909 9.848-.375-.24-2.668-2 .536-7.231.621-1.027 1.435-1.96 2.445-4.055 0 0 .893 1.261.427 3.997-.697 4.135 3.028 2.952 3.085 3.009 1.301 1.533-1.077 4.227-1.223 4.311-.144.081 6.795-4.173 1.865-10.58-.337.337-.776 1.923-1.689 1.688-.912-.232 2.833-4.659-3.824-9.957zm-1.623 18.817a.721.721 0 0 0 .051.032l-.051-.032z"/>
    </symbol>
    <symbol id="gihub" viewBox="0 0 32 32">
      <path d="M19.964 4.576a17.51 17.51 0 0 0-7.927 0c-1.506-.924-2.656-1.348-3.492-1.527a4.576 4.576 0 0 0-1.088-.113 2.755 2.755 0 0 0-.495.06L6.941 3l-.009.004h-.006l.292 1.026-.292-1.024a1.06 1.06 0 0 0-.683.589 6.659 6.659 0 0 0-.339 4.482 7.153 7.153 0 0 0-1.636 4.574c0 3.313.977 5.54 2.643 6.972 1.167 1.003 2.583 1.536 4.004 1.841a4.977 4.977 0 0 0-.247 2.044v1.276c-.868.181-1.47.124-1.899-.017-.535-.177-.947-.533-1.342-1.045a10.112 10.112 0 0 1-.576-.858l-.122-.198a20.417 20.417 0 0 0-.478-.755c-.405-.6-1.007-1.35-1.98-1.606l-1.033-.271-.542 2.065 1.033.271c.171.043.393.203.757.738.14.211.276.426.405.644l.145.235c.201.324.431.683.698 1.033.54.704 1.276 1.414 2.368 1.775.747.247 1.596.307 2.564.158v3.983a1.066 1.066 0 0 0 1.066 1.066h8.533a1.066 1.066 0 0 0 1.066-1.066v-7.601c0-.672-.03-1.288-.22-1.862 1.414-.299 2.82-.832 3.981-1.835 1.664-1.442 2.639-3.691 2.639-7.023v-.002a7.152 7.152 0 0 0-1.638-4.533 6.653 6.653 0 0 0-.339-4.48 1.058 1.058 0 0 0-.681-.591l-.292 1.024c.292-1.024.29-1.024.288-1.024l-.004-.002-.009-.004-.019-.004a1.46 1.46 0 0 0-.16-.032 2.719 2.719 0 0 0-.337-.028 4.682 4.682 0 0 0-1.088.113c-.834.179-1.984.604-3.49 1.527z"/>
    </symbol>
    <symbol id="gitlab" viewBox="0 0 32 32">
      <path d="m28.884 13.316-.037-.096-3.625-9.459a.947.947 0 0 0-.941-.599.947.947 0 0 0-.872.696l-2.448 7.501h-9.917l-2.452-7.5a.95.95 0 0 0-.869-.699.958.958 0 0 0-.943.6l-3.629 9.472-.037.093a6.746 6.746 0 0 0 2.232 7.784l.013.009.032.025 5.529 4.139 4.396 3.329a1.126 1.126 0 0 0 1.354 0l4.396-3.329 5.576-4.175a6.738 6.738 0 0 0 2.242-7.794z"/>
    </symbol>
    <symbol id="hashnode" viewBox="0 0 32 32">
      <path d="M2.199 10.694c-2.932 2.875-2.932 7.681 0 10.613l8.494 8.494c2.875 2.931 7.681 2.931 10.613 0l8.494-8.494c2.931-2.931 2.931-7.738 0-10.613L21.306 2.2c-2.931-2.932-7.738-2.932-10.613 0l-8.494 8.494zm17.519 9.025a5.258 5.258 0 0 1-7.431 0 5.247 5.247 0 0 1 0-7.431 5.247 5.247 0 0 1 7.431 0 5.258 5.258 0 0 1 0 7.431z"/>
    </symbol>
    <symbol id="img" viewBox="0 0 32 32">
      <path d="M27 5H5a2 2 0 0 0-2 2v18a2 2 0 0 0 2 2h22a2 2 0 0 0 2-2V7a2 2 0 0 0-2-2zm0 2v12.844l-3.259-3.258A2.005 2.005 0 0 0 22.327 16a2.004 2.004 0 0 0-1.414.586l-2.5 2.5-5.5-5.5a2 2 0 0 0-2.828 0L5 18.671V7h22zM5 21.5l6.5-6.5 10 10H5v-3.5zM27 25h-2.671l-4.5-4.5 2.5-2.5L27 22.672V25zm-9-12.5a1.495 1.495 0 0 1 .926-1.385 1.496 1.496 0 0 1 1.635.326 1.5 1.5 0 1 1-2.559 1.061z"/>
    </symbol>
    <symbol id="link" viewBox="0 0 34 32">
      <path d="M17.846 23.441a1.502 1.502 0 0 1 .327 1.637 1.502 1.502 0 0 1-.327.487l-.743.742a7.502 7.502 0 0 1-10.61-10.61l3.015-3.014a7.504 7.504 0 0 1 10.291-.31 1.49 1.49 0 0 1 .502 1.036 1.515 1.515 0 0 1-.377 1.089 1.49 1.49 0 0 1-1.036.502 1.497 1.497 0 0 1-1.089-.378 4.496 4.496 0 0 0-6.171.184l-3.012 3.01a4.501 4.501 0 0 0 6.366 6.365l.742-.742a1.5 1.5 0 0 1 2.122 0zm9.26-17.75a7.51 7.51 0 0 0-10.61 0l-.742.742a1.502 1.502 0 0 0 2.125 2.126l.743-.742a4.5 4.5 0 0 1 6.365 6.365l-3.014 3.015a4.502 4.502 0 0 1-6.173.179 1.516 1.516 0 0 0-1.089-.378 1.518 1.518 0 0 0-1.036.502 1.516 1.516 0 0 0-.378 1.089 1.518 1.518 0 0 0 .502 1.036 7.498 7.498 0 0 0 10.288-.304l3.015-3.014a7.51 7.51 0 0 0 .004-10.614V5.69z"/>
    </symbol>
    <symbol id="linkedin" viewBox="0 0 32 32">
      <path d="M25.333 4A2.67 2.67 0 0 1 28 6.667v18.667a2.67 2.67 0 0 1-2.667 2.667H6.666a2.668 2.668 0 0 1-2.667-2.667V6.667A2.668 2.668 0 0 1 6.666 4h18.667zm-.666 20.667V17.6a4.35 4.35 0 0 0-4.347-4.347c-1.133 0-2.453.693-3.093 1.733v-1.48h-3.72v11.16h3.72v-6.573c0-1.027.827-1.867 1.853-1.867a1.867 1.867 0 0 1 1.867 1.867v6.573h3.72zM9.173 11.413a2.24 2.24 0 0 0 2.24-2.24c0-1.24-1-2.253-2.24-2.253A2.257 2.257 0 0 0 6.92 9.173c0 1.24 1.013 2.24 2.253 2.24zm1.854 13.254v-11.16H7.334v11.16h3.693z"/>
    </symbol>
    <symbol id="logo" viewBox="0 0 33 32">
      <path fill-rule="evenodd" clip-rule="evenodd" d="M4.6185 27.3798C6.57317 29.3332 9.7145 29.3332 15.9998 29.3332C22.2852 29.3332 25.4278 29.3332 27.3798 27.3798C29.3332 25.4292 29.3332 22.2852 29.3332 15.9998C29.3332 9.7145 29.3332 6.57184 27.3798 4.6185C25.4292 2.6665 22.2852 2.6665 15.9998 2.6665C9.7145 2.6665 6.57184 2.6665 4.6185 4.6185C2.6665 6.57317 2.6665 9.7145 2.6665 15.9998C2.6665 22.2852 2.6665 25.4278 4.6185 27.3798ZM12.6665 11.6665C11.8095 11.6665 10.9716 11.9206 10.259 12.3968C9.54642 12.873 8.99101 13.5497 8.66303 14.3415C8.33505 15.1334 8.24923 16.0046 8.41643 16.8452C8.58364 17.6858 8.99635 18.4579 9.60237 19.064C10.2084 19.67 10.9805 20.0827 11.8211 20.2499C12.6617 20.4171 13.533 20.3313 14.3248 20.0033C15.1166 19.6753 15.7934 19.1199 16.2695 18.4073C16.7457 17.6947 16.9998 16.8569 16.9998 15.9998C16.9998 15.7346 17.1052 15.4803 17.2927 15.2927C17.4803 15.1052 17.7346 14.9998 17.9998 14.9998C18.2651 14.9998 18.5194 15.1052 18.7069 15.2927C18.8945 15.4803 18.9998 15.7346 18.9998 15.9998C18.9998 17.2525 18.6284 18.4769 17.9325 19.5184C17.2366 20.56 16.2474 21.3717 15.0902 21.8511C13.9329 22.3304 12.6595 22.4558 11.4309 22.2115C10.2024 21.9671 9.07389 21.3639 8.18816 20.4782C7.30243 19.5924 6.69924 18.464 6.45486 17.2354C6.21049 16.0069 6.33591 14.7334 6.81527 13.5762C7.29462 12.4189 8.10638 11.4298 9.14789 10.7339C10.1894 10.0379 11.4139 9.6665 12.6665 9.6665C12.9317 9.6665 13.1861 9.77186 13.3736 9.9594C13.5611 10.1469 13.6665 10.4013 13.6665 10.6665C13.6665 10.9317 13.5611 11.1861 13.3736 11.3736C13.1861 11.5611 12.9317 11.6665 12.6665 11.6665ZM23.6665 15.9998C23.6665 17.1491 23.21 18.2513 22.3973 19.064C21.5846 19.8766 20.4824 20.3332 19.3332 20.3332C19.068 20.3332 18.8136 20.4385 18.6261 20.6261C18.4385 20.8136 18.3332 21.068 18.3332 21.3332C18.3332 21.5984 18.4385 21.8527 18.6261 22.0403C18.8136 22.2278 19.068 22.3332 19.3332 22.3332C20.5858 22.3332 21.8103 21.9617 22.8518 21.2658C23.8933 20.5699 24.7051 19.5808 25.1844 18.4235C25.6638 17.2662 25.7892 15.9928 25.5448 14.7643C25.3004 13.5357 24.6972 12.4072 23.8115 11.5215C22.9258 10.6358 21.7973 10.0326 20.5687 9.7882C19.3402 9.54382 18.0668 9.66924 16.9095 10.1486C15.7522 10.628 14.7631 11.4397 14.0672 12.4812C13.3713 13.5227 12.9998 14.7472 12.9998 15.9998C12.9998 16.2651 13.1052 16.5194 13.2927 16.7069C13.4803 16.8945 13.7346 16.9998 13.9998 16.9998C14.2651 16.9998 14.5194 16.8945 14.7069 16.7069C14.8945 16.5194 14.9998 16.2651 14.9998 15.9998C14.9998 14.8506 15.4564 13.7484 16.269 12.9357C17.0817 12.123 18.1839 11.6665 19.3332 11.6665C20.4824 11.6665 21.5846 12.123 22.3973 12.9357C23.21 13.7484 23.6665 14.8506 23.6665 15.9998Z" fill="#633CFF"/>

    </symbol>
    <symbol id="eye" viewBox="0 0 32 32">
      <path d="M31.375 15.391c-.046-.101-1.141-2.533-3.56-4.951C24.579 7.209 20.5 5.5 16 5.5S7.421 7.209 4.189 10.44C1.77 12.859.675 15.29.625 15.391a1.506 1.506 0 0 0 0 1.218c.046.102 1.141 2.532 3.561 4.951C7.421 24.791 11.5 26.499 16 26.499s8.579-1.708 11.81-4.939c2.42-2.419 3.515-4.849 3.561-4.951a1.504 1.504 0 0 0 .003-1.219zm-5.757 4.125c-2.684 2.642-5.919 3.984-9.617 3.984s-6.934-1.341-9.614-3.985A16.274 16.274 0 0 1 3.691 16a16.332 16.332 0 0 1 2.696-3.514C9.068 9.841 12.302 8.5 16.001 8.5s6.932 1.341 9.614 3.986A16.276 16.276 0 0 1 28.311 16a16.313 16.313 0 0 1-2.696 3.515l.004.001zM16 10.5a5.505 5.505 0 0 0-5.082 3.395 5.505 5.505 0 0 0 1.192 5.994 5.498 5.498 0 0 0 8.462-.834 5.505 5.505 0 0 0 .927-3.056 5.508 5.508 0 0 0-5.5-5.5zm0 8a2.506 2.506 0 0 1-2.31-1.543 2.496 2.496 0 0 1 .542-2.724 2.495 2.495 0 0 1 2.724-.542 2.5 2.5 0 0 1-.957 4.81z"/>
    </symbol>
    <symbol id="password" viewBox="0 0 32 32">
      <path d="M26 10h-4V7a5.996 5.996 0 0 0-6-6 5.996 5.996 0 0 0-6 6v3H6a2 2 0 0 0-2 2v14a2 2 0 0 0 2 2h20a2 2 0 0 0 2-2V12a2 2 0 0 0-2-2zm-9 9.829V23a.997.997 0 0 1-1 1 .997.997 0 0 1-1-1v-3.171a3.003 3.003 0 0 1-1.957-3.335 3.002 3.002 0 0 1 4.891-1.786 3.002 3.002 0 0 1 .654 3.811A2.995 2.995 0 0 1 17 19.829zM20 10h-8V7a4.003 4.003 0 0 1 4-4 4.003 4.003 0 0 1 4 4v3z"/>
    </symbol>
    <symbol id="save" viewBox="0 0 32 32">
      <path d="M31.2 4.8h-3a.597.597 0 0 0-.6.6V12a2.401 2.401 0 0 1-2.4 2.4H13.24a1.225 1.225 0 0 1-1.241-1.121 1.207 1.207 0 0 1 .322-.901 1.204 1.204 0 0 1 .878-.379h11.4a.597.597 0 0 0 .6-.6v-6a.597.597 0 0 0-.6-.6H13.696a2.394 2.394 0 0 0-1.697.703l-6.497 6.496a2.373 2.373 0 0 0-.703 1.697v17.503a2.401 2.401 0 0 0 2.4 2.4h24a2.401 2.401 0 0 0 2.4-2.4v-24a2.4 2.4 0 0 0-2.4-2.4zm-12 22.8a4.799 4.799 0 0 1-.936-9.508 4.795 4.795 0 0 1 4.927 2.041 4.804 4.804 0 0 1-.597 6.061A4.8 4.8 0 0 1 19.2 27.6z"/>
      <path d="M26 4h-2.5a.498.498 0 0 0-.5.5V10a2 2 0 0 1-2 2h-9.966A1.025 1.025 0 0 1 10 11.066a1.003 1.003 0 0 1 .601-.984c.126-.054.262-.082.399-.082h9.5a.498.498 0 0 0 .5-.5v-5a.498.498 0 0 0-.5-.5h-9.086A1.993 1.993 0 0 0 10 4.586L4.586 10A1.977 1.977 0 0 0 4 11.414V26a2 2 0 0 0 2 2h20a2 2 0 0 0 2-2V6a2 2 0 0 0-2-2zM16 23a4.004 4.004 0 0 1-3.695-2.469A4 4 0 1 1 16 23z"/>
    </symbol>
    <symbol id="stack" viewBox="0 0 30 32">
      <path d="M23.822 28.377v-8.034h2.681v10.715H2.312V20.343h2.672v8.034h18.838zM7.665 25.701h13.481v-2.68H7.665v2.68zm.329-6.088 13.153 2.744.564-2.598-13.147-2.741-.569 2.594zM9.7 13.27l12.178 5.682 1.132-2.447-12.176-5.686-1.133 2.432-.001.019zm3.407-6.005 10.309 8.603 1.706-2.036-10.309-8.598-1.697 2.024-.009.006zM19.764.941l-2.191 1.623 8.039 10.798 2.191-1.623L19.764.941z"/>
    </symbol>
    <symbol id="twitch" viewBox="0 0 32 32">
      <path d="M15.521 7.907h1.907v5.707h-1.907zm5.24 0h1.907v5.707h-1.907zM9.334 2.667l-4.76 4.76v17.147h5.707v4.76l4.773-4.76h3.8l8.573-8.573V2.668zm16.187 12.387-3.8 3.8h-3.813l-3.333 3.333v-3.333h-4.293V4.574h15.24v10.48z"/>
    </symbol>
    <symbol id="twitter" viewBox="0 0 32 32">
      <path d="M29.946 8a11.423 11.423 0 0 1-3.28.92 5.738 5.738 0 0 0 2.507-3.173 11.52 11.52 0 0 1-3.627 1.4C24.493 6 23.013 5.334 21.333 5.334c-3.133 0-5.693 2.56-5.693 5.72 0 .453.053.893.147 1.307A16.261 16.261 0 0 1 4 6.388a5.663 5.663 0 0 0-.773 2.867c0 1.987 1 3.747 2.547 4.747-.947 0-1.827-.267-2.6-.667v.04a5.724 5.724 0 0 0 4.587 5.613 5.61 5.61 0 0 1-2.573.093 5.704 5.704 0 0 0 5.333 3.973 11.356 11.356 0 0 1-7.107 2.453c-.453 0-.907-.027-1.36-.08A16.19 16.19 0 0 0 10.827 28c10.507 0 16.28-8.72 16.28-16.28 0-.253 0-.493-.013-.747A11.42 11.42 0 0 0 29.947 8z"/>
    </symbol>
    <symbol id="profile" viewBox="0 0 34 32">
      <path d="M16.8 2.5a13.502 13.502 0 0 0-12.472 8.334 13.497 13.497 0 0 0 2.927 14.712 13.5 13.5 0 0 0 23.046-9.545 13.512 13.512 0 0 0-13.5-13.5zm-6.054 22.071c.696-.952 1.607-1.727 2.659-2.26s2.215-.812 3.394-.812a7.493 7.493 0 0 1 6.053 3.072 10.464 10.464 0 0 1-12.108 0zM13.3 15a3.494 3.494 0 0 1 2.161-3.233 3.5 3.5 0 1 1-2.16 3.234zm11.75 7.492a10.444 10.444 0 0 0-3.625-2.928 6.498 6.498 0 0 0-4.626-11.067 6.498 6.498 0 0 0-5.998 3.994 6.504 6.504 0 0 0 1.372 7.073 10.424 10.424 0 0 0-3.625 2.928 10.503 10.503 0 0 1-1.205-11.084 10.501 10.501 0 1 1 17.693 11.084h.013z"/>
    </symbol>
    <symbol id="youtube" viewBox="0 0 32 32">
      <path d="M16.325 5.333c.712.004 2.493.021 4.387.097l.672.029c1.905.089 3.809.244 4.755.507 1.26.355 2.249 1.387 2.584 2.696.533 2.08.6 6.136.608 7.119l.001.203v.232c-.009.983-.076 5.04-.609 7.119-.339 1.313-1.329 2.347-2.584 2.696-.945.263-2.849.417-4.755.507l-.672.031a133.42 133.42 0 0 1-4.387.096l-.313.001h-.34c-1.507-.009-7.808-.077-9.813-.635-1.259-.355-2.249-1.387-2.584-2.696-.533-2.08-.6-6.136-.608-7.119v-.435c.008-.983.075-5.04.608-7.119.339-1.313 1.329-2.347 2.585-2.695 2.004-.559 8.307-.627 9.813-.635h.652zm-2.994 6v9.333l8-4.667-8-4.667z"/>
    </symbol>

    <symbol id="book" viewBox="0 0 50 32">
      <path fill="#fff" style="fill:var(--color1, #fff)" opacity=".3" d="M9.778 3.065C4.746 5.013 1.013 9.951.27 15.926c-.62 5.035.862 10.597 9.586 12.182 16.975 3.085 34.474 3.445 38.532-4.875S46.892 1.59 38.277.668C31.441-.065 19.607-.74 9.778 3.065z"/>
      <path fill="#333" style="fill:var(--color2, #333)" d="M31.309 1.901H18.593c-.798 0-1.444.647-1.444 1.444v24.032c0 .798.647 1.444 1.444 1.444h12.716c.798 0 1.444-.647 1.444-1.444V3.345c0-.798-.647-1.444-1.444-1.444z"/>
      <path fill="#333" style="fill:var(--color2, #333)" opacity=".03" d="M24.951 27.999a1.13 1.13 0 1 0 0-2.26 1.13 1.13 0 0 0 0 2.26z"/>
      <path fill="#efebff" style="fill:var(--color3, #efebff)" d="M31.23 4.238H18.669v20.961H31.23V4.238z"/>
      <path fill="#333" style="fill:var(--color2, #333)" opacity=".03" d="M23.512 23.952a.41.41 0 1 0 0-.82.41.41 0 0 0 0 .82z"/>
      <path fill="#fff" style="fill:var(--color1, #fff)" opacity=".44" d="M24.951 23.952a.41.41 0 1 0 0-.82.41.41 0 0 0 0 .82z"/>
      <path fill="#333" style="fill:var(--color2, #333)" opacity=".03" d="M26.389 23.952a.41.41 0 1 0 0-.82.41.41 0 0 0 0 .82zM29.555 6.55h-9.209v7.861h9.209V6.55zM26.807 15.926h-6.461v.72h6.461v-.72zM29.555 15.926h-2.312v.72h2.312v-.72zM23.365 18.134h-3.018v.72h3.018v-.72zM29.555 18.134h-5.549v.72h5.549v-.72zM27.32 20.343h-6.974v.72h6.974v-.72z"/>
      <path fill="#efebff" style="fill:var(--color3, #efebff)" d="M15.733 4.238H3.172v20.961h12.561V4.238z"/>
      <path fill="#fff" style="fill:var(--color1, #fff)" opacity=".44" d="M8.015 23.952a.41.41 0 1 0 0-.822.41.41 0 0 0 0 .822z"/>
      <path fill="#333" style="fill:var(--color2, #333)" opacity=".03" d="M9.453 23.952a.41.41 0 1 0 0-.822.41.41 0 0 0 0 .822zM10.891 23.952a.41.41 0 1 0 0-.822.41.41 0 0 0 0 .822zM14.057 6.55H4.848v7.861h9.209V6.55zM11.309 15.926H4.848v.72h6.461v-.72zM14.058 15.926h-2.312v.72h2.312v-.72zM7.867 18.134H4.849v.72h3.018v-.72zM14.058 18.134H8.509v.72h5.549v-.72zM11.822 20.343H4.848v.72h6.974v-.72z"/>
      <path fill="#efebff" style="fill:var(--color3, #efebff)" d="M46.728 4.238H34.167v20.961h12.561V4.238z"/>
      <path fill="#333" style="fill:var(--color2, #333)" opacity=".03" d="M39.01 23.952a.41.41 0 1 0 0-.82.41.41 0 0 0 0 .82zM40.448 23.952a.41.41 0 1 0 0-.82.41.41 0 0 0 0 .82z"/>
      <path fill="#fff" style="fill:var(--color1, #fff)" opacity=".44" d="M41.886 23.952a.41.41 0 1 0 0-.82.41.41 0 0 0 0 .82z"/>
      <path fill="#333" style="fill:var(--color2, #333)" opacity=".03" d="M45.053 6.55h-9.209v7.861h9.209V6.55zM42.304 15.926h-6.461v.72h6.461v-.72zM45.053 15.926h-2.312v.72h2.312v-.72zM38.862 18.134h-3.018v.72h3.018v-.72zM45.054 18.134h-5.549v.72h5.549v-.72zM42.818 20.343h-6.974v.72h6.974v-.72z"/>
      <path fill="#333" style="fill:var(--color2, #333)" opacity=".1" d="M29.237 28.828c0-.151-.32-6.339-.115-7.259s2.089-5.421 1.592-5.946c-.497-.525-2.315.67-2.315.67s.332-5.419-.453-5.806c-.785-.386-1.133 1.127-1.133 1.127l-.418 6.062-2.07 11.122 4.912.029z"/>
      <path fill="#f4a28c" style="fill:var(--color4, #f4a28c)" d="M27.838 22.518c.264-1.056.661-2.087.915-3.154.168-.706 1.251-3.658 1.554-4.527.094-.267.174-.59-.008-.807a.516.516 0 0 0-.481-.151.968.968 0 0 0-.465.243c-.302.266-.859 1.58-1.266 1.579-.494 0-.261-1.358-.275-1.619-.056-1.124.027-2.566-.412-3.622-.326-.785-1.135-.679-1.325.169s-.183 4.402-.183 4.402-3.157-.542-3.696.421c-.539.963.371 7.079.371 7.079l5.27-.012z"/>
      <path fill="#633cff" style="fill:var(--color5, #633cff)" d="m28.222 31.901-.057-9.72-5.899-1.295-2.375 11.015h8.332z"/>
      <path fill="#333" style="fill:var(--color2, #333)" opacity=".1" d="m28.223 31.901-.057-9.72-2.816-.619-.504 10.339h3.378z"/>
    </symbol>

    <symbol id="line" viewBox="0 0 64 32">
      <path fill="#737373" style="fill:var(--color1, #737373)" d="M0 0h64v5.333H0V0zM0 26.667h64V32H0v-5.333z"/>
    </symbol>

    <symbol id="check" viewBox="0 0 20 20">
        <path fill-rule="evenodd" d="M10 18a8 8 0 1 0 0-16 8 8 0 0 0 0 16zm3.707-9.293a1 1 0 0 0-1.414-1.414L9 10.586 7.707 9.293a1 1 0 0 0-1.414 1.414l2 2a1 1 0 0 0 1.414 0l4-4z" clip-rule="evenodd" stroke="none"/>
    </symbol>

    <symbol id="warning" viewBox="0 0 24 24">
       <path d="M12 22C6.477 22 2 17.523 2 12S6.477 2 12 2s10 4.477 10 10-4.477 10-10 10Zm0-2a8 8 0 1 0 0-16 8 8 0 0 0 0 16Zm-1-5h2v2h-2v-2Zm0-8h2v6h-2V7Z" stroke="none"/>
    </symbol>




  </defs>
</svg>



