<svg width="32" height="32" viewBox="0 0 32 32" fill="none" xmlns="http://www.w3.org/2000/svg">
<path fill-rule="evenodd" clip-rule="evenodd" d="M4.61869 27.38C6.57335 29.3334 9.71469 29.3334 16 29.3334C22.2854 29.3334 25.428 29.3334 27.38 27.38C29.3334 25.4294 29.3334 22.2854 29.3334 16C29.3334 9.71469 29.3334 6.57202 27.38 4.61869C25.4294 2.66669 22.2854 2.66669 16 2.66669C9.71469 2.66669 6.57202 2.66669 4.61869 4.61869C2.66669 6.57335 2.66669 9.71469 2.66669 16C2.66669 22.2854 2.66669 25.428 4.61869 27.38ZM12.6667 11.6667C11.8096 11.6667 10.9718 11.9208 10.2592 12.397C9.5466 12.8731 8.99119 13.5499 8.66321 14.3417C8.33523 15.1335 8.24941 16.0048 8.41662 16.8454C8.58382 17.686 8.99653 18.4581 9.60256 19.0641C10.2086 19.6702 10.9807 20.0829 11.8213 20.2501C12.6619 20.4173 13.5332 20.3315 14.325 20.0035C15.1168 19.6755 15.7936 19.1201 16.2697 18.4075C16.7459 17.6949 17 16.8571 17 16C17 15.7348 17.1054 15.4804 17.2929 15.2929C17.4804 15.1054 17.7348 15 18 15C18.2652 15 18.5196 15.1054 18.7071 15.2929C18.8947 15.4804 19 15.7348 19 16C19 17.2526 18.6286 18.4771 17.9327 19.5186C17.2367 20.5601 16.2476 21.3719 15.0903 21.8513C13.9331 22.3306 12.6597 22.456 11.4311 22.2117C10.2026 21.9673 9.07408 21.3641 8.18834 20.4784C7.30261 19.5926 6.69942 18.4641 6.45505 17.2356C6.21067 16.007 6.33609 14.7336 6.81545 13.5764C7.2948 12.4191 8.10656 11.43 9.14808 10.734C10.1896 10.0381 11.4141 9.66669 12.6667 9.66669C12.9319 9.66669 13.1863 9.77204 13.3738 9.95958C13.5613 10.1471 13.6667 10.4015 13.6667 10.6667C13.6667 10.9319 13.5613 11.1863 13.3738 11.3738C13.1863 11.5613 12.9319 11.6667 12.6667 11.6667ZM23.6667 16C23.6667 17.1493 23.2101 18.2515 22.3975 19.0641C21.5848 19.8768 20.4826 20.3334 19.3334 20.3334C19.0681 20.3334 18.8138 20.4387 18.6262 20.6262C18.4387 20.8138 18.3334 21.0681 18.3334 21.3334C18.3334 21.5986 18.4387 21.8529 18.6262 22.0405C18.8138 22.228 19.0681 22.3334 19.3334 22.3334C20.586 22.3334 21.8105 21.9619 22.852 21.266C23.8935 20.5701 24.7052 19.5809 25.1846 18.4237C25.6639 17.2664 25.7894 15.993 25.545 14.7644C25.3006 13.5359 24.6974 12.4074 23.8117 11.5217C22.926 10.6359 21.7975 10.0328 20.5689 9.78838C19.3404 9.54401 18.067 9.66943 16.9097 10.1488C15.7524 10.6281 14.7633 11.4399 14.0674 12.4814C13.3715 13.5229 13 14.7474 13 16C13 16.2652 13.1054 16.5196 13.2929 16.7071C13.4804 16.8947 13.7348 17 14 17C14.2652 17 14.5196 16.8947 14.7071 16.7071C14.8947 16.5196 15 16.2652 15 16C15 14.8507 15.4566 13.7485 16.2692 12.9359C17.0819 12.1232 18.1841 11.6667 19.3334 11.6667C20.4826 11.6667 21.5848 12.1232 22.3975 12.9359C23.2101 13.7485 23.6667 14.8507 23.6667 16Z" fill="#633CFF"/>
</svg>
